<svg xmlns="http://www.w3.org/2000/svg" viewBox="0 0 512 512" role="img" aria-label="Edge cache policy">
  <defs>
    <linearGradient id="edge-fill" x1="128" y1="86" x2="384" y2="426" gradientUnits="userSpaceOnUse">
      <stop offset="0" stop-color="#24c6dc"/>
      <stop offset="0.52" stop-color="#3a7bd5"/>
      <stop offset="1" stop-color="#536dfe"/>
    </linearGradient>
    <linearGradient id="node-fill" x1="154" y1="126" x2="358" y2="386" gradientUnits="userSpaceOnUse">
      <stop offset="0" stop-color="#ffffff"/>
      <stop offset="1" stop-color="#dfe8ff"/>
    </linearGradient>
    <filter id="soft-shadow" x="-20%" y="-20%" width="140%" height="140%" color-interpolation-filters="sRGB">
      <feDropShadow dx="0" dy="16" stdDeviation="18" flood-color="#153052" flood-opacity="0.22"/>
    </filter>
  </defs>

  <rect x="56" y="56" width="400" height="400" rx="96" fill="url(#edge-fill)" filter="url(#soft-shadow)"/>
  <path d="M256 108 383 181v150L256 404 129 331V181z" fill="none" stroke="#ffffff" stroke-opacity="0.34" stroke-width="18" stroke-linejoin="round"/>
  <path d="M256 160v192M172 208l168 96M340 208l-168 96" fill="none" stroke="#ffffff" stroke-opacity="0.48" stroke-width="14" stroke-linecap="round"/>

  <circle cx="256" cy="160" r="34" fill="url(#node-fill)"/>
  <circle cx="172" cy="208" r="30" fill="url(#node-fill)" opacity="0.94"/>
  <circle cx="340" cy="208" r="30" fill="url(#node-fill)" opacity="0.94"/>
  <circle cx="172" cy="304" r="30" fill="url(#node-fill)" opacity="0.94"/>
  <circle cx="340" cy="304" r="30" fill="url(#node-fill)" opacity="0.94"/>
  <circle cx="256" cy="352" r="34" fill="url(#node-fill)"/>

  <circle cx="256" cy="256" r="56" fill="#102a43" fill-opacity="0.22"/>
  <circle cx="256" cy="256" r="38" fill="#ffffff"/>
  <path d="M236 257h40M256 237v40" fill="none" stroke="#3a7bd5" stroke-width="18" stroke-linecap="round"/>
</svg>
