<svg xmlns="http://www.w3.org/2000/svg" viewBox="0 0 512 512" role="img" aria-label="Server policy">
  <defs>
    <linearGradient id="bg" x1="94" y1="78" x2="418" y2="434" gradientUnits="userSpaceOnUse">
      <stop offset="0" stop-color="#19b6d2"/>
      <stop offset="0.5" stop-color="#3478f6"/>
      <stop offset="1" stop-color="#5b5ce2"/>
    </linearGradient>
    <linearGradient id="panel" x1="140" y1="130" x2="372" y2="382" gradientUnits="userSpaceOnUse">
      <stop offset="0" stop-color="#ffffff"/>
      <stop offset="1" stop-color="#dce7ff"/>
    </linearGradient>
    <filter id="shadow" x="-20%" y="-20%" width="140%" height="140%" color-interpolation-filters="sRGB">
      <feDropShadow dx="0" dy="16" stdDeviation="18" flood-color="#102a43" flood-opacity="0.24"/>
    </filter>
  </defs>

  <rect x="56" y="56" width="400" height="400" rx="92" fill="url(#bg)" filter="url(#shadow)"/>
  <rect x="134" y="132" width="244" height="248" rx="34" fill="#0d253f" fill-opacity="0.22"/>

  <rect x="154" y="152" width="204" height="64" rx="18" fill="url(#panel)"/>
  <rect x="154" y="224" width="204" height="64" rx="18" fill="url(#panel)"/>
  <rect x="154" y="296" width="204" height="64" rx="18" fill="url(#panel)"/>

  <circle cx="190" cy="184" r="10" fill="#28c76f"/>
  <circle cx="222" cy="184" r="10" fill="#3478f6"/>
  <path d="M260 184h64" stroke="#6c7a96" stroke-width="14" stroke-linecap="round" opacity="0.72"/>

  <circle cx="190" cy="256" r="10" fill="#28c76f"/>
  <circle cx="222" cy="256" r="10" fill="#3478f6"/>
  <path d="M260 256h64" stroke="#6c7a96" stroke-width="14" stroke-linecap="round" opacity="0.72"/>

  <circle cx="190" cy="328" r="10" fill="#28c76f"/>
  <circle cx="222" cy="328" r="10" fill="#3478f6"/>
  <path d="M260 328h64" stroke="#6c7a96" stroke-width="14" stroke-linecap="round" opacity="0.72"/>

  <path d="M256 382v34M210 416h92" stroke="#ffffff" stroke-width="18" stroke-linecap="round" opacity="0.82"/>
</svg>
